<?xml version="1.0" encoding="UTF-8" standalone="no"?>
<!-- Created with Inkscape (http://www.inkscape.org/) -->

<svg
   width="1200"
   height="630"
   viewBox="0 0 317.5 166.6875"
   version="1.1"
   id="svg1"
   xml:space="preserve"
   inkscape:version="1.4.2 (ebf0e940d0, 2025-05-08)"
   sodipodi:docname="drawing.svg"
   inkscape:export-filename="og-image.jpg"
   inkscape:export-xdpi="96"
   inkscape:export-ydpi="96"
   xmlns:inkscape="http://www.inkscape.org/namespaces/inkscape"
   xmlns:sodipodi="http://sodipodi.sourceforge.net/DTD/sodipodi-0.dtd"
   xmlns="http://www.w3.org/2000/svg"
   xmlns:svg="http://www.w3.org/2000/svg"
   xmlns:lc="https://librecad.org"><sodipodi:namedview
     id="namedview1"
     pagecolor="#505050"
     bordercolor="#ffffff"
     borderopacity="1"
     inkscape:showpageshadow="true"
     inkscape:pageopacity="0"
     inkscape:pagecheckerboard="true"
     inkscape:deskcolor="#505050"
     inkscape:document-units="mm"
     showborder="true"
     labelstyle="default"
     inkscape:zoom="0.44666667"
     inkscape:cx="533.95522"
     inkscape:cy="398.50746"
     inkscape:window-width="1920"
     inkscape:window-height="1043"
     inkscape:window-x="1920"
     inkscape:window-y="0"
     inkscape:window-maximized="1"
     inkscape:current-layer="layer3" /><defs
     id="defs1" /><g
     inkscape:groupmode="layer"
     id="layer2"
     inkscape:label="Background"
     style="display:inline"><rect
       style="display:inline;fill:#ffffff;stroke-width:0.186504"
       id="rect4"
       width="339.79611"
       height="185.72124"
       x="-8.9511242"
       y="-14.607196"
       inkscape:label="bg-white" /><rect
       style="display:inline;fill:#2d3441;fill-opacity:1;stroke-width:0.194541"
       id="rect4-3"
       width="337.4267"
       height="203.49176"
       x="-158.60262"
       y="-19.896914"
       inkscape:label="bg-black" /></g><g
     inkscape:label="Geometrics"
     id="layer1-5"
     style="display:inline"
     transform="translate(-871.64174,-204.57335)"><g
       id="g2"
       transform="translate(338.45406,-209.99675)"
       style="display:inline"><g
         lc:layername="exterior"
         lc:is_locked="false"
         lc:is_construction="false"
         fill="none"
         stroke="#000000"
         stroke-width="1"
         id="g11"><path
           d="m 64.17176,147.92563 21.36196,-37"
           id="path1" /><path
           d="m 84.08588,73.925626 a 20,20 0 0 1 -10,17.320508 l 11.54294,19.992956 42.54294,-0.31346 V 36.925626 l -21.36196,37 z"
           id="path2-3" /><path
           d="M 128.17176,110.92563 106.8098,73.925626"
           id="path3-5" /><path
           d="M 128.12882,37 H 85.4049 L 64.04294,0 128.12882,37 H 85.4049 L 74.04294,56.679492 A 20,20 0 0 1 84.04294,74 h 23.08588 l 21,-37 L 64.04294,0 85.4049,37 74.04294,56.679492 A 20,20 0 0 1 84.04294,74 h 23.08588 l 21,-37"
           id="path4-6" /><path
           d="m 54.08588,56.753866 a 20,20 0 0 1 20,0 L 85.62882,36.760908 64.08588,0.07437416 0,37.074374 h 42.72392 l 11.36196,19.679492"
           id="path5-2" /><path
           d="M 64.08588,0.07437416 42.72392,37.074374"
           id="path6-9" /><path
           d="m 44.17176,74.074374 a 20,20 0 0 1 10,-17.320508 L 42.62882,36.760908 0.08587988,37.074374 V 111.07437 L 21.44784,74.074374 h 22.72392"
           id="path7-1" /><path
           d="m 0.08587988,37.074374 21.36196012,37"
           id="path8-2" /><path
           d="M 54.2147,91.320508 A 20,20 0 0 1 44.2147,74 H 21.12882 L 0.12881982,111 64.2147,148 42.85274,111 54.2147,91.320508"
           id="path9-7" /><path
           d="M 0.12881982,111 H 42.85274"
           id="path10-0" /><path
           d="m 74.17176,91.246134 a 20,20 0 0 1 -20,0 l -11.54294,19.992956 21.54294,36.68654 64.08588,-37 H 85.53372 L 74.17176,91.246134"
           id="path11-9" /></g><g
         lc:layername="interior"
         lc:is_locked="false"
         lc:is_construction="false"
         fill="none"
         stroke="#000000"
         stroke-width="1"
         id="g29"><path
           d="M 123.17176,92.265372 112.5833,73.925626 123.17176,55.58588 Z"
           id="path12-3" /><path
           d="M 88.503265,106.21778 80.663456,92.638829 a 25,25 0 0 0 7.917321,-13.713203 h 15.342273 l 15.62506,27.063404 z"
           id="path13-6" /><path
           d="m 71.58582,86.915903 a 15,15 0 0 0 7.5,-12.990381"
           id="path14-0" /><path
           d="M 88.291651,32 77.703194,13.660254 109.46857,32 H 88.291651 L 77.703194,13.660254 109.46857,32 H 88.291651"
           id="path15" /><path
           d="M 80.620516,55.286797 88.291651,42 H 119.54178 L 104.21746,69 H 88.537837 A 25,25 0 0 0 80.620516,55.286797 L 88.291651,42 H 119.54178 L 104.21746,69 H 88.537837 A 25,25 0 0 0 80.620516,55.286797"
           id="path16" /><path
           d="m 71.54282,61.009619 a 15,15 0 0 1 7.5,12.990381 15,15 0 0 0 -7.5,-12.990381"
           id="path17" /><path
           d="M 50.425626,13.734628 39.837169,32.074374 H 18.660254 L 50.425626,13.734628"
           id="path18" /><path
           d="m 79.843011,36.782223 -7.839809,13.578948 a 25,25 0 0 0 -15.834644,0 L 48.497423,37.074374 64.122487,10.010969 79.843011,36.782223"
           id="path19-6" /><path
           d="m 71.58582,61.084097 a 15,15 0 0 0 -15,0"
           id="path20-2" /><path
           d="M 5.0858799,55.734628 15.674337,74.074374 5.0858799,92.41412 V 55.734628"
           id="path21-6" /><path
           d="m 39.754375,41.782223 7.839809,13.578948 A 25,25 0 0 0 39.676862,69.074374 H 24.334591 L 8.7095268,42.010969 39.754375,41.782223"
           id="path22-1" /><path
           d="m 56.67182,61.084097 a 15,15 0 0 0 -7.5,12.990381"
           id="path23-8" /><path
           d="M 18.789074,116 H 39.965988 L 50.554446,134.33975 18.789074,116"
           id="path24-7" /><path
           d="m 24.040184,79 h 15.679618 a 25,25 0 0 0 7.917322,13.713203 L 39.965988,106 H 8.7158597 L 24.040184,79"
           id="path25-9" /><path
           d="m 49.21482,74 a 15,15 0 0 0 7.5,12.990381"
           id="path26-2" /><path
           d="M 77.832014,134.26537 88.420471,115.92563 H 109.59739 L 77.832014,134.26537"
           id="path27-0" /><path
           d="m 48.414629,111.21778 7.839809,-13.578951 a 25,25 0 0 0 15.834643,0 l 7.671136,13.286801 -15.625064,27.0634 -15.720524,-26.77125"
           id="path28-2" /><path
           d="m 56.67182,86.915903 a 15,15 0 0 0 15,0"
           id="path29-3" /></g></g><g
       lc:layername="0"
       lc:is_locked="false"
       lc:is_construction="false"
       fill="none"
       stroke="#000000"
       stroke-width="1"
       id="g205"
       transform="translate(424.32112,-308.6486)"><line
         x1="125.13593"
         y1="100.13593"
         x2="129.87927"
         y2="96.220146"
         id="line1" /><line
         x1="129.87927"
         y1="96.220146"
         x2="124.28407"
         y2="93.665459"
         id="line2" /><path
         d="M 140.13593,100.13593 A 40,40 0 0 0 138.77296,89.783169"
         id="path2" /><path
         d="M 142.13593,100.13593 A 42,42 0 0 0 140.70482,89.265531"
         id="path3" /><path
         d="M 144.13593,100.13593 A 44,44 0 0 0 142.63667,88.747893"
         id="path4" /><path
         d="m 157.76908,87.509767 a 5,5 0 0 0 1.30409,9.905545"
         id="path5" /><path
         d="m 157.76908,87.509767 a 59,59 0 0 0 -0.64353,-2.64416"
         id="path6" /><path
         d="m 159.13593,100.13593 a 59,59 0 0 0 -0.0628,-2.720618"
         id="path7" /><path
         d="M 161.13593,100.13593 A 61,61 0 0 0 159.05741,84.347969"
         id="path8" /><path
         d="M 163.13593,100.13593 A 63,63 0 0 0 160.98926,83.830331"
         id="path9" /><path
         d="m 181.9356,94.4076 a 5,5 0 1 0 -1.30465,-9.909839"
         id="path10" /><path
         d="m 180.63095,84.497761 a 82,82 0 0 0 -1.2891,-5.584992"
         id="path11" /><path
         d="M 178.13593,100.13593 A 78,78 0 0 0 175.47815,79.948045"
         id="path12" /><path
         d="M 180.13593,100.13593 A 80,80 0 0 0 177.41,79.430407"
         id="path13" /><path
         d="M 182.13593,100.13593 A 82,82 0 0 0 181.9356,94.4076"
         id="path14" /><line
         x1="200.27187"
         y1="86.952789"
         x2="193.83073"
         y2="75.030487"
         id="line14" /><line
         x1="100.13593"
         y1="100.13593"
         x2="193.83073"
         y2="75.030487"
         id="line15" /><line
         x1="100.13593"
         y1="100.13593"
         x2="197.13593"
         y2="100.13593"
         id="line16" /><line
         x1="197.13593"
         y1="100.13593"
         x2="200.27187"
         y2="86.952789"
         id="line17" /><line
         x1="124.28407"
         y1="93.665459"
         x2="127.85232"
         y2="88.655426"
         id="line18" /><line
         x1="127.85232"
         y1="88.655426"
         x2="121.78657"
         y2="87.635933"
         id="line19" /><path
         d="m 138.77296,89.783169 a 40,40 0 0 0 -3.99601,-9.647238"
         id="path19" /><path
         d="M 140.70482,89.265531 A 42,42 0 0 0 136.509,79.135931"
         id="path20" /><path
         d="M 142.63667,88.747893 A 44,44 0 0 0 138.24105,78.135931"
         id="path21" /><path
         d="m 152.53739,73.023437 a 5,5 0 0 0 3.82339,9.230497"
         id="path22" /><path
         d="m 152.53739,73.023437 a 59,59 0 0 0 -1.30596,-2.387506"
         id="path23" /><path
         d="m 157.12555,84.865607 a 59,59 0 0 0 -0.76477,-2.611673"
         id="path24" /><path
         d="M 159.05741,84.347969 A 61,61 0 0 0 152.96348,69.635931"
         id="path25" /><path
         d="m 160.98926,83.830331 a 63,63 0 0 0 -6.29373,-15.1944"
         id="path26" /><path
         d="m 177.66575,73.431476 a 5,5 0 1 0 -3.82506,-9.234501"
         id="path27" /><path
         d="m 173.84069,64.196975 a 82,82 0 0 0 -2.69068,-5.061044"
         id="path28" /><path
         d="M 175.47815,79.948045 A 78,78 0 0 0 167.68591,61.135931"
         id="path29" /><path
         d="M 177.41,79.430407 A 80,80 0 0 0 169.41796,60.135931"
         id="path30" /><path
         d="m 179.34185,78.912769 a 82,82 0 0 0 -1.6761,-5.481293"
         id="path31" /><line
         x1="193.44777"
         y1="61.484905"
         x2="184.1404"
         y2="51.635929"
         id="line31" /><line
         x1="100.13593"
         y1="100.13593"
         x2="184.1404"
         y2="51.635929"
         id="line32" /><line
         x1="100.13593"
         y1="100.13593"
         x2="193.83073"
         y2="75.030487"
         id="line33" /><line
         x1="193.83073"
         y1="75.030487"
         x2="193.44777"
         y2="61.484905"
         id="line34" /><line
         x1="121.78657"
         y1="87.635933"
         x2="123.93653"
         y2="81.873085"
         id="line35" /><line
         x1="123.93653"
         y1="81.873085"
         x2="117.8136"
         y2="82.45826"
         id="line36" /><path
         d="M 134.77695,80.135931 A 40,40 0 0 0 128.4202,71.85166"
         id="path36" /><path
         d="m 136.509,79.135931 a 42,42 0 0 0 -6.67458,-8.698485"
         id="path37" /><path
         d="m 138.24105,78.135931 a 44,44 0 0 0 -6.99242,-9.112698"
         id="path38" /><path
         d="m 143.73462,60.384778 a 5,5 0 0 0 6.08215,7.926408"
         id="path39" /><path
         d="m 143.73462,60.384778 a 59,59 0 0 0 -1.87939,-1.968147"
         id="path40" /><path
         d="m 151.23143,70.635931 a 59,59 0 0 0 -1.41466,-2.324745"
         id="path41" /><path
         d="M 152.96348,69.635931 A 61,61 0 0 0 143.26944,57.002417"
         id="path42" /><path
         d="M 154.69553,68.635931 A 63,63 0 0 0 144.68366,55.588204"
         id="path43" /><path
         d="M 168.11236,54.275216 A 5,5 0 1 0 162.02757,46.34537"
         id="path44" /><path
         d="m 162.02757,46.34537 a 82,82 0 0 0 -3.90888,-4.192195"
         id="path45" /><path
         d="M 167.68591,61.135931 A 78,78 0 0 0 155.29026,44.981602"
         id="path46" /><path
         d="M 169.41796,60.135931 A 80,80 0 0 0 156.70447,43.567388"
         id="path47" /><path
         d="m 171.15001,59.135931 a 82,82 0 0 0 -3.03765,-4.860715"
         id="path48" /><line
         x1="180.26462"
         y1="38.651028"
         x2="168.7253"
         y2="31.546574"
         id="line48" /><line
         x1="100.13593"
         y1="100.13593"
         x2="168.7253"
         y2="31.546574"
         id="line49" /><line
         x1="100.13593"
         y1="100.13593"
         x2="184.1404"
         y2="51.635929"
         id="line50" /><line
         x1="184.1404"
         y1="51.635929"
         x2="180.26462"
         y2="38.651028"
         id="line51" /><line
         x1="117.8136"
         y1="82.45826"
         x2="118.39877"
         y2="76.335327"
         id="line52" /><line
         x1="118.39877"
         y1="76.335327"
         x2="112.63593"
         y2="78.485298"
         id="line53" /><path
         d="m 128.4202,71.85166 a 40,40 0 0 0 -8.28427,-6.356745"
         id="path53" /><path
         d="m 129.83442,70.437446 a 42,42 0 0 0 -8.69849,-6.674582"
         id="path54" /><path
         d="m 131.24863,69.023233 a 44,44 0 0 0 -9.1127,-6.99242"
         id="path55" /><path
         d="m 131.96068,50.455094 a 5,5 0 0 0 7.9264,6.082147"
         id="path56" /><path
         d="m 131.96068,50.455094 a 59,59 0 0 0 -2.32475,-1.414662"
         id="path57" /><path
         d="m 141.85523,58.416631 a 59,59 0 0 0 -1.96815,-1.87939"
         id="path58" /><path
         d="M 143.26944,57.002417 A 61,61 0 0 0 130.63593,47.308381"
         id="path59" /><path
         d="M 144.68366,55.588204 A 63,63 0 0 0 131.63593,45.576331"
         id="path60" /><path
         d="m 153.92649,38.244287 a 5,5 0 1 0 -7.92984,-6.084784"
         id="path61" /><path
         d="m 145.99665,32.159503 a 82,82 0 0 0 -4.86072,-3.037655"
         id="path62" /><path
         d="M 155.29026,44.981602 A 78,78 0 0 0 139.13593,32.585949"
         id="path63" /><path
         d="M 156.70447,43.567388 A 80,80 0 0 0 140.13593,30.853899"
         id="path64" /><path
         d="m 158.11869,42.153175 a 82,82 0 0 0 -4.1922,-3.908888"
         id="path65" /><line
         x1="161.62083"
         y1="20.007244"
         x2="148.63593"
         y2="16.131466"
         id="line65" /><line
         x1="100.13593"
         y1="100.13593"
         x2="148.63593"
         y2="16.131466"
         id="line66" /><line
         x1="100.13593"
         y1="100.13593"
         x2="168.7253"
         y2="31.546574"
         id="line67" /><line
         x1="168.7253"
         y1="31.546574"
         x2="161.62083"
         y2="20.007244"
         id="line68" /><line
         x1="112.63593"
         y1="78.485298"
         x2="111.61643"
         y2="72.419548"
         id="line69" /><line
         x1="111.61643"
         y1="72.419548"
         x2="106.60641"
         y2="75.987785"
         id="line70" /><path
         d="m 120.13593,65.494915 a 40,40 0 0 0 -9.64724,-3.996017"
         id="path70" /><path
         d="m 121.13593,63.762864 a 42,42 0 0 0 -10.1296,-4.195818"
         id="path71" /><path
         d="M 122.13593,62.030813 A 44,44 0 0 0 111.52397,57.635195"
         id="path72" /><path
         d="m 118.01793,43.911077 a 5,5 0 0 0 9.2305,3.823397"
         id="path73" /><path
         d="m 118.01793,43.911077 a 59,59 0 0 0 -2.61168,-0.76477"
         id="path74" /><path
         d="m 129.63593,49.040432 a 59,59 0 0 0 -2.3875,-1.305958"
         id="path75" /><path
         d="M 130.63593,47.308381 A 61,61 0 0 0 115.92389,41.214456"
         id="path76" /><path
         d="m 131.63593,45.576331 a 63,63 0 0 0 -15.1944,-6.293727"
         id="path77" /><path
         d="m 136.07489,26.431172 a 5,5 0 1 0 -9.2345,-3.825055"
         id="path78" /><path
         d="m 126.84039,22.606117 a 82,82 0 0 0 -5.4813,-1.676104"
         id="path79" /><path
         d="M 139.13593,32.585949 A 78,78 0 0 0 120.32382,24.793717"
         id="path80" /><path
         d="M 140.13593,30.853899 A 80,80 0 0 0 120.84145,22.861865"
         id="path81" /><path
         d="m 141.13593,29.121848 a 82,82 0 0 0 -5.06104,-2.690676"
         id="path82" /><line
         x1="138.78696"
         y1="6.8240981"
         x2="125.24138"
         y2="6.4411259"
         id="line82" /><line
         x1="100.13593"
         y1="100.13593"
         x2="125.24138"
         y2="6.4411259"
         id="line83" /><line
         x1="100.13593"
         y1="100.13593"
         x2="148.63593"
         y2="16.131466"
         id="line84" /><line
         x1="148.63593"
         y1="16.131466"
         x2="138.78696"
         y2="6.8240981"
         id="line85" /><line
         x1="106.60641"
         y1="75.987785"
         x2="104.05172"
         y2="70.392586"
         id="line86" /><line
         x1="104.05172"
         y1="70.392586"
         x2="100.13593"
         y2="75.135933"
         id="line87" /><path
         d="M 110.48869,61.498898 A 40,40 0 0 0 100.13593,60.135931"
         id="path87" /><path
         d="m 111.00633,59.567046 a 42,42 0 0 0 -10.8704,-1.431115"
         id="path88" /><path
         d="M 111.52397,57.635195 A 44,44 0 0 0 100.13593,56.135931"
         id="path89" /><path
         d="m 102.85655,41.198691 a 5,5 0 0 0 9.90554,1.30409"
         id="path90" /><path
         d="m 102.85655,41.198691 a 59,59 0 0 0 -2.72062,-0.06276"
         id="path91" /><path
         d="m 115.40625,43.146307 a 59,59 0 0 0 -2.64416,-0.643526"
         id="path92" /><path
         d="M 115.92389,41.214456 A 61,61 0 0 0 100.13593,39.135931"
         id="path93" /><path
         d="m 116.44153,39.282604 a 63,63 0 0 0 -16.3056,-2.146673"
         id="path94" /><path
         d="M 115.7741,19.640915 A 5,5 0 1 0 105.86426,18.33626"
         id="path95" /><path
         d="m 105.86426,18.33626 a 82,82 0 0 0 -5.72833,-0.200329"
         id="path96" /><path
         d="M 120.32382,24.793717 A 78,78 0 0 0 100.13593,22.135931"
         id="path97" /><path
         d="M 120.84145,22.861865 A 80,80 0 0 0 100.13593,20.135931"
         id="path98" /><path
         d="M 121.35909,20.930013 A 82,82 0 0 0 115.7741,19.640915"
         id="path99" /><line
         x1="113.31908"
         y1="0"
         x2="100.13593"
         y2="3.135931"
         id="line99" /><line
         x1="100.13593"
         y1="100.13593"
         x2="100.13593"
         y2="3.135931"
         id="line100" /><line
         x1="100.13593"
         y1="100.13593"
         x2="125.24138"
         y2="6.4411259"
         id="line101" /><line
         x1="125.24138"
         y1="6.4411259"
         x2="113.31908"
         y2="0"
         id="line102" /><line
         x1="100.13593"
         y1="75.135933"
         x2="96.220146"
         y2="70.392586"
         id="line103" /><line
         x1="96.220146"
         y1="70.392586"
         x2="93.665459"
         y2="75.987785"
         id="line104" /><path
         d="M 100.13593,60.135931 A 40,40 0 0 0 89.783169,61.498898"
         id="path104" /><path
         d="M 100.13593,58.135931 A 42,42 0 0 0 89.265531,59.567046"
         id="path105" /><path
         d="M 100.13593,56.135931 A 44,44 0 0 0 88.747893,57.635195"
         id="path106" /><path
         d="m 87.509767,42.502781 a 5,5 0 0 0 9.905545,-1.30409"
         id="path107" /><path
         d="m 87.509767,42.502781 a 59,59 0 0 0 -2.64416,0.643526"
         id="path108" /><path
         d="m 100.13593,41.135931 a 59,59 0 0 0 -2.720618,0.06276"
         id="path109" /><path
         d="M 100.13593,39.135931 A 61,61 0 0 0 84.347969,41.214456"
         id="path110" /><path
         d="M 100.13593,37.135931 A 63,63 0 0 0 83.830331,39.282604"
         id="path111" /><path
         d="m 94.4076,18.33626 a 5,5 0 1 0 -9.909839,1.304655"
         id="path112" /><path
         d="m 84.497761,19.640915 a 82,82 0 0 0 -5.584992,1.289098"
         id="path113" /><path
         d="M 100.13593,22.135931 A 78,78 0 0 0 79.948045,24.793717"
         id="path114" /><path
         d="M 100.13593,20.135931 A 80,80 0 0 0 79.430407,22.861865"
         id="path115" /><path
         d="M 100.13593,18.135931 A 82,82 0 0 0 94.4076,18.33626"
         id="path116" /><line
         x1="86.952789"
         y1="0"
         x2="75.030487"
         y2="6.4411259"
         id="line116" /><line
         x1="100.13593"
         y1="100.13593"
         x2="75.030487"
         y2="6.4411259"
         id="line117" /><line
         x1="100.13593"
         y1="100.13593"
         x2="100.13593"
         y2="3.135931"
         id="line118" /><line
         x1="100.13593"
         y1="3.135931"
         x2="86.952789"
         y2="0"
         id="line119" /><line
         x1="93.665459"
         y1="75.987785"
         x2="88.655426"
         y2="72.419548"
         id="line120" /><line
         x1="88.655426"
         y1="72.419548"
         x2="87.635933"
         y2="78.485298"
         id="line121" /><path
         d="m 89.783169,61.498898 a 40,40 0 0 0 -9.647238,3.996017"
         id="path121" /><path
         d="m 89.265531,59.567046 a 42,42 0 0 0 -10.1296,4.195818"
         id="path122" /><path
         d="M 88.747893,57.635195 A 44,44 0 0 0 78.135931,62.030813"
         id="path123" /><path
         d="m 73.023437,47.734474 a 5,5 0 0 0 9.230497,-3.823397"
         id="path124" /><path
         d="m 73.023437,47.734474 a 59,59 0 0 0 -2.387506,1.305958"
         id="path125" /><path
         d="m 84.865607,43.146307 a 59,59 0 0 0 -2.611673,0.76477"
         id="path126" /><path
         d="M 84.347969,41.214456 A 61,61 0 0 0 69.635931,47.308381"
         id="path127" /><path
         d="m 83.830331,39.282604 a 63,63 0 0 0 -15.1944,6.293727"
         id="path128" /><path
         d="m 73.431476,22.606117 a 5,5 0 1 0 -9.234501,3.825055"
         id="path129" /><path
         d="m 64.196975,26.431172 a 82,82 0 0 0 -5.061044,2.690676"
         id="path130" /><path
         d="M 79.948045,24.793717 A 78,78 0 0 0 61.135931,32.585949"
         id="path131" /><path
         d="M 79.430407,22.861865 A 80,80 0 0 0 60.135931,30.853899"
         id="path132" /><path
         d="m 78.912769,20.930013 a 82,82 0 0 0 -5.481293,1.676104"
         id="path133" /><line
         x1="61.484905"
         y1="6.8240981"
         x2="51.635929"
         y2="16.131466"
         id="line133" /><line
         x1="100.13593"
         y1="100.13593"
         x2="51.635929"
         y2="16.131466"
         id="line134" /><line
         x1="100.13593"
         y1="100.13593"
         x2="75.030487"
         y2="6.4411259"
         id="line135" /><line
         x1="75.030487"
         y1="6.4411259"
         x2="61.484905"
         y2="6.8240981"
         id="line136" /><line
         x1="87.635933"
         y1="78.485298"
         x2="81.873085"
         y2="76.335327"
         id="line137" /><line
         x1="81.873085"
         y1="76.335327"
         x2="82.45826"
         y2="82.45826"
         id="line138" /><path
         d="M 80.135931,65.494915 A 40,40 0 0 0 71.85166,71.85166"
         id="path138" /><path
         d="m 79.135931,63.762864 a 42,42 0 0 0 -8.698485,6.674582"
         id="path139" /><path
         d="m 78.135931,62.030813 a 44,44 0 0 0 -9.112698,6.99242"
         id="path140" /><path
         d="m 60.384778,56.537241 a 5,5 0 0 0 7.926408,-6.082147"
         id="path141" /><path
         d="m 60.384778,56.537241 a 59,59 0 0 0 -1.968147,1.87939"
         id="path142" /><path
         d="m 70.635931,49.040432 a 59,59 0 0 0 -2.324745,1.414662"
         id="path143" /><path
         d="M 69.635931,47.308381 A 61,61 0 0 0 57.002417,57.002417"
         id="path144" /><path
         d="M 68.635931,45.576331 A 63,63 0 0 0 55.588204,55.588204"
         id="path145" /><path
         d="M 54.275216,32.159503 A 5,5 0 1 0 46.34537,38.244287"
         id="path146" /><path
         d="m 46.34537,38.244287 a 82,82 0 0 0 -4.192195,3.908888"
         id="path147" /><path
         d="M 61.135931,32.585949 A 78,78 0 0 0 44.981602,44.981602"
         id="path148" /><path
         d="M 60.135931,30.853899 A 80,80 0 0 0 43.567388,43.567388"
         id="path149" /><path
         d="m 59.135931,29.121848 a 82,82 0 0 0 -4.860715,3.037655"
         id="path150" /><line
         x1="38.651028"
         y1="20.007244"
         x2="31.546574"
         y2="31.546574"
         id="line150" /><line
         x1="100.13593"
         y1="100.13593"
         x2="31.546574"
         y2="31.546574"
         id="line151" /><line
         x1="100.13593"
         y1="100.13593"
         x2="51.635929"
         y2="16.131466"
         id="line152" /><line
         x1="51.635929"
         y1="16.131466"
         x2="38.651028"
         y2="20.007244"
         id="line153" /><line
         x1="82.45826"
         y1="82.45826"
         x2="76.335327"
         y2="81.873085"
         id="line154" /><line
         x1="76.335327"
         y1="81.873085"
         x2="78.485298"
         y2="87.635933"
         id="line155" /><path
         d="m 71.85166,71.85166 a 40,40 0 0 0 -6.356745,8.284271"
         id="path155" /><path
         d="m 70.437446,70.437446 a 42,42 0 0 0 -6.674582,8.698485"
         id="path156" /><path
         d="m 69.023233,69.023233 a 44,44 0 0 0 -6.99242,9.112698"
         id="path157" /><path
         d="m 50.455094,68.311186 a 5,5 0 0 0 6.082147,-7.926408"
         id="path158" /><path
         d="m 50.455094,68.311186 a 59,59 0 0 0 -1.414662,2.324745"
         id="path159" /><path
         d="m 58.416631,58.416631 a 59,59 0 0 0 -1.87939,1.968147"
         id="path160" /><path
         d="M 57.002417,57.002417 A 61,61 0 0 0 47.308381,69.635931"
         id="path161" /><path
         d="M 55.588204,55.588204 A 63,63 0 0 0 45.576331,68.635931"
         id="path162" /><path
         d="m 38.244287,46.34537 a 5,5 0 1 0 -6.084784,7.929846"
         id="path163" /><path
         d="m 32.159503,54.275216 a 82,82 0 0 0 -3.037655,4.860715"
         id="path164" /><path
         d="M 44.981602,44.981602 A 78,78 0 0 0 32.585949,61.135931"
         id="path165" /><path
         d="M 43.567388,43.567388 A 80,80 0 0 0 30.853899,60.135931"
         id="path166" /><path
         d="M 42.153175,42.153175 A 82,82 0 0 0 38.244287,46.34537"
         id="path167" /><line
         x1="20.007244"
         y1="38.651028"
         x2="16.131466"
         y2="51.635929"
         id="line167" /><line
         x1="100.13593"
         y1="100.13593"
         x2="16.131466"
         y2="51.635929"
         id="line168" /><line
         x1="100.13593"
         y1="100.13593"
         x2="31.546574"
         y2="31.546574"
         id="line169" /><line
         x1="31.546574"
         y1="31.546574"
         x2="20.007244"
         y2="38.651028"
         id="line170" /><line
         x1="78.485298"
         y1="87.635933"
         x2="72.419548"
         y2="88.655426"
         id="line171" /><line
         x1="72.419548"
         y1="88.655426"
         x2="75.987785"
         y2="93.665459"
         id="line172" /><path
         d="m 65.494915,80.135931 a 40,40 0 0 0 -3.996017,9.647238"
         id="path172" /><path
         d="m 63.762864,79.135931 a 42,42 0 0 0 -4.195818,10.1296"
         id="path173" /><path
         d="M 62.030813,78.135931 A 44,44 0 0 0 57.635195,88.747893"
         id="path174" /><path
         d="m 43.911077,82.253934 a 5,5 0 0 0 3.823397,-9.230497"
         id="path175" /><path
         d="m 43.911077,82.253934 a 59,59 0 0 0 -0.76477,2.611673"
         id="path176" /><path
         d="m 49.040432,70.635931 a 59,59 0 0 0 -1.305958,2.387506"
         id="path177" /><path
         d="M 47.308381,69.635931 A 61,61 0 0 0 41.214456,84.347969"
         id="path178" /><path
         d="m 45.576331,68.635931 a 63,63 0 0 0 -6.293727,15.1944"
         id="path179" /><path
         d="m 26.431172,64.196975 a 5,5 0 1 0 -3.825055,9.234501"
         id="path180" /><path
         d="m 22.606117,73.431476 a 82,82 0 0 0 -1.676104,5.481293"
         id="path181" /><path
         d="M 32.585949,61.135931 A 78,78 0 0 0 24.793717,79.948045"
         id="path182" /><path
         d="M 30.853899,60.135931 A 80,80 0 0 0 22.861865,79.430407"
         id="path183" /><path
         d="m 29.121848,59.135931 a 82,82 0 0 0 -2.690676,5.061044"
         id="path184" /><line
         x1="6.8240981"
         y1="61.484905"
         x2="6.4411259"
         y2="75.030487"
         id="line184" /><line
         x1="100.13593"
         y1="100.13593"
         x2="6.4411259"
         y2="75.030487"
         id="line185" /><line
         x1="100.13593"
         y1="100.13593"
         x2="16.131466"
         y2="51.635929"
         id="line186" /><line
         x1="16.131466"
         y1="51.635929"
         x2="6.8240981"
         y2="61.484905"
         id="line187" /><line
         x1="75.987785"
         y1="93.665459"
         x2="70.392586"
         y2="96.220146"
         id="line188" /><line
         x1="70.392586"
         y1="96.220146"
         x2="75.135933"
         y2="100.13593"
         id="line189" /><path
         d="M 61.498898,89.783169 A 40,40 0 0 0 60.135931,100.13593"
         id="path189" /><path
         d="M 59.567046,89.265531 A 42,42 0 0 0 58.135931,100.13593"
         id="path190" /><path
         d="M 57.635195,88.747893 A 44,44 0 0 0 56.135931,100.13593"
         id="path191" /><path
         d="m 41.198691,97.415312 a 5,5 0 0 0 1.30409,-9.905545"
         id="path192" /><path
         d="m 41.198691,97.415312 a 59,59 0 0 0 -0.06276,2.720618"
         id="path193" /><path
         d="m 43.146307,84.865607 a 59,59 0 0 0 -0.643526,2.64416"
         id="path194" /><path
         d="M 41.214456,84.347969 A 61,61 0 0 0 39.135931,100.13593"
         id="path195" /><path
         d="M 39.282604,83.830331 A 63,63 0 0 0 37.135931,100.13593"
         id="path196" /><path
         d="M 19.640915,84.497761 A 5,5 0 1 0 18.33626,94.4076"
         id="path197" /><path
         d="m 18.33626,94.4076 a 82,82 0 0 0 -0.200329,5.72833"
         id="path198" /><path
         d="M 24.793717,79.948045 A 78,78 0 0 0 22.135931,100.13593"
         id="path199" /><path
         d="M 22.861865,79.430407 A 80,80 0 0 0 20.135931,100.13593"
         id="path200" /><path
         d="m 20.930013,78.912769 a 82,82 0 0 0 -1.289098,5.584992"
         id="path201" /><line
         x1="0"
         y1="86.952789"
         x2="3.135931"
         y2="100.13593"
         id="line201" /><line
         x1="100.13593"
         y1="100.13593"
         x2="3.135931"
         y2="100.13593"
         id="line202" /><line
         x1="100.13593"
         y1="100.13593"
         x2="6.4411259"
         y2="75.030487"
         id="line203" /><line
         x1="6.4411259"
         y1="75.030487"
         x2="0"
         y2="86.952789"
         id="line204" /><line
         x1="100.13593"
         y1="100.13593"
         x2="3.135931"
         y2="100.13593"
         id="line205" /></g></g><g
     inkscape:label="Text"
     inkscape:groupmode="layer"
     id="layer1"
     style="display:inline"
     transform="translate(-530.74627,-408.72201)"><text
       xml:space="preserve"
       style="font-size:25.4px;text-align:start;writing-mode:lr-tb;direction:ltr;text-anchor:start;display:inline;fill:#000000;stroke-width:0.264583"
       x="722.10498"
       y="636.72595"
       id="text1"><tspan
         sodipodi:role="line"
         id="tspan1"
         style="font-size:25.4px;stroke-width:0.264583"
         x="722.10498"
         y="636.72595">AlpineJS  Pages</tspan></text><text
       xml:space="preserve"
       style="font-size:25.4px;text-align:start;writing-mode:lr-tb;direction:ltr;text-anchor:start;display:inline;fill:#000000;stroke-width:0.264583"
       x="699.88593"
       y="657.48053"
       id="text3"><tspan
         id="tspan3"
         style="font-size:12.7px;stroke-width:0.264583"
         x="699.88593"
         y="657.48053"
         sodipodi:role="line">Fast pages with the power of Alpine.js</tspan><tspan
         style="stroke-width:0.264583"
         x="699.88593"
         y="689.23053"
         id="tspan4"
         sodipodi:role="line" /></text><text
       xml:space="preserve"
       style="font-size:12.7px;text-align:start;writing-mode:lr-tb;direction:ltr;text-anchor:start;fill:#77c1d2;fill-opacity:1;stroke-width:0.264583"
       x="583.79413"
       y="480.10507"
       id="text2"><tspan
         sodipodi:role="line"
         id="tspan2"
         style="font-style:normal;font-variant:normal;font-weight:600;font-stretch:normal;font-size:25.4px;font-family:'Fira Code';-inkscape-font-specification:'Fira Code Semi-Bold';fill:#77c1d2;fill-opacity:1;stroke-width:0.264583"
         x="583.79413"
         y="480.10507">AlpineJS Pages</tspan><tspan
         sodipodi:role="line"
         style="fill:#77c1d2;fill-opacity:1;stroke-width:0.264583"
         x="583.79413"
         y="500.75043"
         id="tspan5" /><tspan
         sodipodi:role="line"
         style="fill:#77c1d2;fill-opacity:1;stroke-width:0.264583"
         x="583.79413"
         y="516.62543"
         id="tspan6" /><tspan
         sodipodi:role="line"
         style="fill:#77c1d2;fill-opacity:1;stroke-width:0.264583"
         x="583.79413"
         y="532.50043"
         id="tspan7" /></text><text
       xml:space="preserve"
       style="font-size:12.7px;text-align:start;writing-mode:lr-tb;direction:ltr;text-anchor:start;fill:#77c1d2;fill-opacity:1;stroke-width:0.264583"
       x="556.63513"
       y="500.38806"
       id="text8"><tspan
         sodipodi:role="line"
         id="tspan8"
         style="font-style:normal;font-variant:normal;font-weight:normal;font-stretch:normal;font-family:'Fira Code';-inkscape-font-specification:'Fira Code';fill:#77c1d2;fill-opacity:1;stroke-width:0.264583"
         x="556.63513"
         y="500.38806">Lightweight components. Modern web.</tspan><tspan
         sodipodi:role="line"
         style="fill:#77c1d2;fill-opacity:1;stroke-width:0.264583"
         x="556.63513"
         y="516.32898"
         id="tspan9" /></text></g><g
     inkscape:groupmode="layer"
     id="layer3"
     inkscape:label="Alpine JS Logo"
     style="display:inline"><g
       id="Custom-Preset-4-Copy-5-2"
       stroke="none"
       stroke-width="1"
       fill="none"
       fill-rule="evenodd"
       transform="matrix(0.1200974,0,0,0.1430765,-39.198606,-305.94464)"
       style="display:inline"><path
         d="m 236.145,101 4.015,-12.98 h 25.465 L 269.64,101 h 18.535 L 264.69,27.19 H 242.305 L 217.445,101 Z M 261.61,74.985 H 244.615 L 253.25,47.98 Z M 317.05,101 V 25.1 h -17.6 V 101 Z m 36.3,26.29 -0.001,-28.571 0.055,0.0502 c 0.55246,0.5104 1.14347,0.968 1.77302,1.3728 l 0.31799,0.198 c 2.67667,1.61333 6.01333,2.42 10.01,2.42 4.58333,0 8.8825,-1.13667 12.8975,-3.41 4.015,-2.273333 7.26,-5.555 9.735,-9.845 2.475,-4.29 3.7125,-9.478333 3.7125,-15.565 0,-6.123333 -1.21917,-11.33 -3.6575,-15.62 -2.43833,-4.29 -5.60083,-7.571667 -9.4875,-9.845 -3.88667,-2.273333 -7.99333,-3.41 -12.32,-3.41 -3.26333,0 -6.34333,0.834167 -9.24,2.5025 -2.0856,1.2012 -3.88133,2.929872 -5.38718,5.186016 L 351.541,53.086 350.105,46.825 H 335.75 V 127.29 Z M 362.7,86.7 c -1.68667,0 -3.245,-0.311667 -4.675,-0.935 -1.43,-0.623333 -2.56667,-1.485 -3.41,-2.585 -0.84333,-1.1 -1.265,-2.383333 -1.265,-3.85 h -0.001 v -8.91 l 0.007,-0.378033 c 0.0477,-1.623845 0.40517,-3.061789 1.0725,-4.313834 L 354.588,65.4425 c 0.825,-1.411667 1.97083,-2.5025 3.4375,-3.2725 1.46667,-0.77 3.135,-1.155 5.005,-1.155 2.31,0 4.29917,0.531667 5.9675,1.595 1.66833,1.063333 2.96083,2.566667 3.8775,4.51 0.91667,1.943333 1.375,4.216667 1.375,6.82 0,3.08 -0.61417,5.555 -1.8425,7.425 -1.22833,1.87 -2.73167,3.226667 -4.51,4.07 -1.77833,0.843333 -3.51083,1.265 -5.1975,1.265 z m 53.625,-46.86 c 3.22667,0 5.775,-0.8525 7.645,-2.5575 1.87,-1.705 2.805,-4.115833 2.805,-7.2325 0,-3.043333 -0.935,-5.4725 -2.805,-7.2875 -1.87,-1.815 -4.41833,-2.7225 -7.645,-2.7225 -3.33667,0 -5.9125,0.9075 -7.7275,2.7225 -1.815,1.815 -2.7225,4.244167 -2.7225,7.2875 0,3.116667 0.9075,5.5275 2.7225,7.2325 1.815,1.705 4.39083,2.5575 7.7275,2.5575 z m 8.8,61.16 V 46.495 h -17.6 V 101 Z m 37.84,0 V 78.175 l 0.003,-0.559943 c 0.0417,-3.699243 0.5,-6.724243 1.375,-9.075 l 0.1345,-0.347557 c 1.00833,-2.511667 2.35583,-4.335833 4.0425,-5.4725 1.68667,-1.136667 3.53833,-1.705 5.555,-1.705 1.98,0 3.66667,0.6875 5.06,2.0625 1.39333,1.375 2.09,3.4925 2.09,6.3525 v 0 31.57 h 17.71 V 69.43 c 0,-4.73 -0.69667,-8.928333 -2.09,-12.595 -1.39333,-3.666667 -3.56583,-6.545 -6.5175,-8.635 -2.95167,-2.09 -6.75583,-3.135 -11.4125,-3.135 -4.07,0 -7.70917,1.136667 -10.9175,3.41 -1.99138,1.411034 -3.72143,3.323543 -5.19014,5.737527 L 462.656,54.466 460.875,46.825 h -15.51 V 101 Z m 74.855,1.76 c 4.47333,0 8.42417,-0.80667 11.8525,-2.42 3.42833,-1.613333 6.215,-3.795 8.36,-6.545 2.145,-2.75 3.4925,-5.811667 4.0425,-9.185 v 0 h -17.49 c -0.47667,1.43 -1.32,2.475 -2.53,3.135 -1.21,0.66 -2.62167,0.99 -4.235,0.99 -1.98,0 -3.62083,-0.4675 -4.9225,-1.4025 -1.30167,-0.935 -2.2825,-2.245833 -2.9425,-3.9325 -0.66,-1.686667 -0.99,-3.685 -0.99,-5.995 l 10e-4,0.11 h 32.559 c 0.86842,-3.890526 1.03754,-7.6741 0.50734,-11.35072 l -0.0948,-0.61178 c -0.64167,-3.868333 -1.99833,-7.3425 -4.07,-10.4225 -2.07167,-3.08 -4.79417,-5.5275 -8.1675,-7.3425 -3.37333,-1.815 -7.33333,-2.7225 -11.88,-2.7225 -4.58333,0 -8.87333,1.136667 -12.87,3.41 -3.99667,2.273333 -7.22333,5.545833 -9.68,9.8175 -2.45667,4.271667 -3.685,9.395833 -3.685,15.3725 0,5.976667 1.2375,11.146667 3.7125,15.51 2.475,4.363333 5.71083,7.718333 9.7075,10.065 3.99667,2.34667 8.26833,3.52 12.815,3.52 z m 8.359,-34.155 h -17.135 l 10e-4,-0.01516 c 0.13363,-1.504148 0.43429,-2.841259 0.902,-4.011333 l 0.1455,-0.346007 c 0.75167,-1.705 1.815,-3.006667 3.19,-3.905 1.375,-0.898333 2.9975,-1.3475 4.8675,-1.3475 1.68667,0 3.07083,0.339167 4.1525,1.0175 1.08167,0.678333 1.91583,1.576667 2.5025,2.695 0.58667,1.118333 0.98083,2.3375 1.1825,3.6575 0.10083,0.66 0.16271,1.315417 0.18563,1.96625 z m 34.596,33.385 c 3.48333,0 6.36167,-1.05417 8.635,-3.1625 2.27333,-2.108333 3.41,-4.794167 3.41,-8.0575 0,-3.263333 -1.13667,-5.976667 -3.41,-8.14 -2.27333,-2.163333 -5.15167,-3.245 -8.635,-3.245 -3.48333,0 -6.31583,1.081667 -8.4975,3.245 -2.18167,2.163333 -3.2725,4.876667 -3.2725,8.14 0,3.226667 1.09083,5.903333 3.2725,8.03 2.18167,2.12667 5.01417,3.19 8.4975,3.19 z M 614.38,39.84 c 3.22667,0 5.775,-0.8525 7.645,-2.5575 1.87,-1.705 2.805,-4.115833 2.805,-7.2325 0,-3.043333 -0.935,-5.4725 -2.805,-7.2875 -1.87,-1.815 -4.41833,-2.7225 -7.645,-2.7225 -3.22667,0 -5.79333,0.9075 -7.7,2.7225 -1.90667,1.815 -2.86,4.244167 -2.86,7.2875 0,3.116667 0.95333,5.5275 2.86,7.2325 1.90667,1.705 4.47333,2.5575 7.7,2.5575 z m -10.505,89.375 c 6.41667,0 11.275,-1.75083 14.575,-5.2525 3.3,-3.50167 4.95,-9.41417 4.95,-17.7375 v 0 -59.62 h -17.71 v 59.29 c 0,3.15333 -0.55917,5.26167 -1.6775,6.325 -1.11833,1.06333 -2.81417,1.595 -5.0875,1.595 -1.76,0 -3.66667,-0.25667 -5.72,-0.77 -2.05333,-0.51333 -3.86833,-1.08167 -5.445,-1.705 v 0 15.125 c 2.53,0.69667 5.04167,1.32917 7.535,1.8975 2.49333,0.56833 5.35333,0.8525 8.58,0.8525 z M 664.54,102.76 c 4.54667,0 8.61667,-0.84333 12.21,-2.53 3.59333,-1.686667 6.42583,-3.8775 8.4975,-6.5725 2.07167,-2.695 3.1075,-5.545833 3.1075,-8.5525 0,-3.3 -1.06333,-6.05 -3.19,-8.25 -2.12667,-2.2 -5.04167,-4.033333 -8.745,-5.5 v 0 L 661.46,65.36 c -2.31,-0.806667 -3.465,-1.906667 -3.465,-3.3 0,-1.026667 0.55,-1.851667 1.65,-2.475 1.1,-0.623333 2.60333,-0.935 4.51,-0.935 2.31,0 3.96,0.430833 4.95,1.2925 0.99,0.861667 1.485,1.879167 1.485,3.0525 v 0 h 16.115 c -0.0367,-5.206667 -1.99833,-9.496667 -5.885,-12.87 -3.88667,-3.373333 -9.44167,-5.06 -16.665,-5.06 -7.7,0 -13.76833,1.485 -18.205,4.455 -4.43667,2.97 -6.655,6.856667 -6.655,11.66 0,3.41 1.05417,6.3525 3.1625,8.8275 2.10833,2.475 5.10583,4.519167 8.9925,6.1325 v 0 l 13.145,5.115 c 1.39333,0.55 2.42,1.1 3.08,1.65 0.66,0.55 0.99,1.283333 0.99,2.2 0,0.696667 -0.23833,1.3475 -0.715,1.9525 -0.47667,0.605 -1.19167,1.090833 -2.145,1.4575 -0.95333,0.366667 -2.16333,0.55 -3.63,0.55 -2.42,0 -4.33583,-0.366667 -5.7475,-1.1 -1.41167,-0.733333 -2.15417,-2.053333 -2.2275,-3.96 v 0 h -15.895 c -0.0367,4.216667 1.05417,7.709167 3.2725,10.4775 2.21833,2.768333 5.3075,4.84 9.2675,6.215 3.96,1.375 8.525,2.0625 13.695,2.0625 z"
         id="Alpine.js-9"
         fill="#2d3441"
         fill-rule="nonzero" /><g
         id="Group-4-1"
         transform="translate(0,12)"><polygon
           id="Path-2"
           fill="#77c1d2"
           points="149.52038,10.302777 189.39248,50 149.52038,89.697223 109.64828,50 " /><polygon
           id="polygon1-7"
           fill="#2d3441"
           points="49.840125,10.302777 132.49997,92.600082 52.755773,92.600082 9.9680251,50 " /></g></g><g
       id="Custom-Preset-4-Copy-5"
       stroke="none"
       stroke-width="1"
       fill="none"
       fill-rule="evenodd"
       transform="matrix(0.26458333,0,0,0.26458333,-58.41413,-394.12558)"
       style="display:inline"><path
         d="m 236.145,101 4.015,-12.98 h 25.465 L 269.64,101 h 18.535 L 264.69,27.19 H 242.305 L 217.445,101 Z M 261.61,74.985 H 244.615 L 253.25,47.98 Z M 317.05,101 V 25.1 h -17.6 V 101 Z m 36.3,26.29 -0.001,-28.571 0.055,0.0502 c 0.55246,0.5104 1.14347,0.968 1.77302,1.3728 l 0.31799,0.198 c 2.67667,1.61333 6.01333,2.42 10.01,2.42 4.58333,0 8.8825,-1.13667 12.8975,-3.41 4.015,-2.273333 7.26,-5.555 9.735,-9.845 2.475,-4.29 3.7125,-9.478333 3.7125,-15.565 0,-6.123333 -1.21917,-11.33 -3.6575,-15.62 -2.43833,-4.29 -5.60083,-7.571667 -9.4875,-9.845 -3.88667,-2.273333 -7.99333,-3.41 -12.32,-3.41 -3.26333,0 -6.34333,0.834167 -9.24,2.5025 -2.0856,1.2012 -3.88133,2.929872 -5.38718,5.186016 L 351.541,53.086 350.105,46.825 H 335.75 V 127.29 Z M 362.7,86.7 c -1.68667,0 -3.245,-0.311667 -4.675,-0.935 -1.43,-0.623333 -2.56667,-1.485 -3.41,-2.585 -0.84333,-1.1 -1.265,-2.383333 -1.265,-3.85 h -0.001 v -8.91 l 0.007,-0.378033 c 0.0477,-1.623845 0.40517,-3.061789 1.0725,-4.313834 L 354.588,65.4425 c 0.825,-1.411667 1.97083,-2.5025 3.4375,-3.2725 1.46667,-0.77 3.135,-1.155 5.005,-1.155 2.31,0 4.29917,0.531667 5.9675,1.595 1.66833,1.063333 2.96083,2.566667 3.8775,4.51 0.91667,1.943333 1.375,4.216667 1.375,6.82 0,3.08 -0.61417,5.555 -1.8425,7.425 -1.22833,1.87 -2.73167,3.226667 -4.51,4.07 -1.77833,0.843333 -3.51083,1.265 -5.1975,1.265 z m 53.625,-46.86 c 3.22667,0 5.775,-0.8525 7.645,-2.5575 1.87,-1.705 2.805,-4.115833 2.805,-7.2325 0,-3.043333 -0.935,-5.4725 -2.805,-7.2875 -1.87,-1.815 -4.41833,-2.7225 -7.645,-2.7225 -3.33667,0 -5.9125,0.9075 -7.7275,2.7225 -1.815,1.815 -2.7225,4.244167 -2.7225,7.2875 0,3.116667 0.9075,5.5275 2.7225,7.2325 1.815,1.705 4.39083,2.5575 7.7275,2.5575 z m 8.8,61.16 V 46.495 h -17.6 V 101 Z m 37.84,0 V 78.175 l 0.003,-0.559943 c 0.0417,-3.699243 0.5,-6.724243 1.375,-9.075 l 0.1345,-0.347557 c 1.00833,-2.511667 2.35583,-4.335833 4.0425,-5.4725 1.68667,-1.136667 3.53833,-1.705 5.555,-1.705 1.98,0 3.66667,0.6875 5.06,2.0625 1.39333,1.375 2.09,3.4925 2.09,6.3525 v 0 31.57 h 17.71 V 69.43 c 0,-4.73 -0.69667,-8.928333 -2.09,-12.595 -1.39333,-3.666667 -3.56583,-6.545 -6.5175,-8.635 -2.95167,-2.09 -6.75583,-3.135 -11.4125,-3.135 -4.07,0 -7.70917,1.136667 -10.9175,3.41 -1.99138,1.411034 -3.72143,3.323543 -5.19014,5.737527 L 462.656,54.466 460.875,46.825 h -15.51 V 101 Z m 74.855,1.76 c 4.47333,0 8.42417,-0.80667 11.8525,-2.42 3.42833,-1.613333 6.215,-3.795 8.36,-6.545 2.145,-2.75 3.4925,-5.811667 4.0425,-9.185 v 0 h -17.49 c -0.47667,1.43 -1.32,2.475 -2.53,3.135 -1.21,0.66 -2.62167,0.99 -4.235,0.99 -1.98,0 -3.62083,-0.4675 -4.9225,-1.4025 -1.30167,-0.935 -2.2825,-2.245833 -2.9425,-3.9325 -0.66,-1.686667 -0.99,-3.685 -0.99,-5.995 l 10e-4,0.11 h 32.559 c 0.86842,-3.890526 1.03754,-7.6741 0.50734,-11.35072 l -0.0948,-0.61178 c -0.64167,-3.868333 -1.99833,-7.3425 -4.07,-10.4225 -2.07167,-3.08 -4.79417,-5.5275 -8.1675,-7.3425 -3.37333,-1.815 -7.33333,-2.7225 -11.88,-2.7225 -4.58333,0 -8.87333,1.136667 -12.87,3.41 -3.99667,2.273333 -7.22333,5.545833 -9.68,9.8175 -2.45667,4.271667 -3.685,9.395833 -3.685,15.3725 0,5.976667 1.2375,11.146667 3.7125,15.51 2.475,4.363333 5.71083,7.718333 9.7075,10.065 3.99667,2.34667 8.26833,3.52 12.815,3.52 z m 8.359,-34.155 h -17.135 l 10e-4,-0.01516 c 0.13363,-1.504148 0.43429,-2.841259 0.902,-4.011333 l 0.1455,-0.346007 c 0.75167,-1.705 1.815,-3.006667 3.19,-3.905 1.375,-0.898333 2.9975,-1.3475 4.8675,-1.3475 1.68667,0 3.07083,0.339167 4.1525,1.0175 1.08167,0.678333 1.91583,1.576667 2.5025,2.695 0.58667,1.118333 0.98083,2.3375 1.1825,3.6575 0.10083,0.66 0.16271,1.315417 0.18563,1.96625 z m 34.596,33.385 c 3.48333,0 6.36167,-1.05417 8.635,-3.1625 2.27333,-2.108333 3.41,-4.794167 3.41,-8.0575 0,-3.263333 -1.13667,-5.976667 -3.41,-8.14 -2.27333,-2.163333 -5.15167,-3.245 -8.635,-3.245 -3.48333,0 -6.31583,1.081667 -8.4975,3.245 -2.18167,2.163333 -3.2725,4.876667 -3.2725,8.14 0,3.226667 1.09083,5.903333 3.2725,8.03 2.18167,2.12667 5.01417,3.19 8.4975,3.19 z M 614.38,39.84 c 3.22667,0 5.775,-0.8525 7.645,-2.5575 1.87,-1.705 2.805,-4.115833 2.805,-7.2325 0,-3.043333 -0.935,-5.4725 -2.805,-7.2875 -1.87,-1.815 -4.41833,-2.7225 -7.645,-2.7225 -3.22667,0 -5.79333,0.9075 -7.7,2.7225 -1.90667,1.815 -2.86,4.244167 -2.86,7.2875 0,3.116667 0.95333,5.5275 2.86,7.2325 1.90667,1.705 4.47333,2.5575 7.7,2.5575 z m -10.505,89.375 c 6.41667,0 11.275,-1.75083 14.575,-5.2525 3.3,-3.50167 4.95,-9.41417 4.95,-17.7375 v 0 -59.62 h -17.71 v 59.29 c 0,3.15333 -0.55917,5.26167 -1.6775,6.325 -1.11833,1.06333 -2.81417,1.595 -5.0875,1.595 -1.76,0 -3.66667,-0.25667 -5.72,-0.77 -2.05333,-0.51333 -3.86833,-1.08167 -5.445,-1.705 v 0 15.125 c 2.53,0.69667 5.04167,1.32917 7.535,1.8975 2.49333,0.56833 5.35333,0.8525 8.58,0.8525 z M 664.54,102.76 c 4.54667,0 8.61667,-0.84333 12.21,-2.53 3.59333,-1.686667 6.42583,-3.8775 8.4975,-6.5725 2.07167,-2.695 3.1075,-5.545833 3.1075,-8.5525 0,-3.3 -1.06333,-6.05 -3.19,-8.25 -2.12667,-2.2 -5.04167,-4.033333 -8.745,-5.5 v 0 L 661.46,65.36 c -2.31,-0.806667 -3.465,-1.906667 -3.465,-3.3 0,-1.026667 0.55,-1.851667 1.65,-2.475 1.1,-0.623333 2.60333,-0.935 4.51,-0.935 2.31,0 3.96,0.430833 4.95,1.2925 0.99,0.861667 1.485,1.879167 1.485,3.0525 v 0 h 16.115 c -0.0367,-5.206667 -1.99833,-9.496667 -5.885,-12.87 -3.88667,-3.373333 -9.44167,-5.06 -16.665,-5.06 -7.7,0 -13.76833,1.485 -18.205,4.455 -4.43667,2.97 -6.655,6.856667 -6.655,11.66 0,3.41 1.05417,6.3525 3.1625,8.8275 2.10833,2.475 5.10583,4.519167 8.9925,6.1325 v 0 l 13.145,5.115 c 1.39333,0.55 2.42,1.1 3.08,1.65 0.66,0.55 0.99,1.283333 0.99,2.2 0,0.696667 -0.23833,1.3475 -0.715,1.9525 -0.47667,0.605 -1.19167,1.090833 -2.145,1.4575 -0.95333,0.366667 -2.16333,0.55 -3.63,0.55 -2.42,0 -4.33583,-0.366667 -5.7475,-1.1 -1.41167,-0.733333 -2.15417,-2.053333 -2.2275,-3.96 v 0 h -15.895 c -0.0367,4.216667 1.05417,7.709167 3.2725,10.4775 2.21833,2.768333 5.3075,4.84 9.2675,6.215 3.96,1.375 8.525,2.0625 13.695,2.0625 z"
         id="Alpine.js"
         fill="#2d3441"
         fill-rule="nonzero" /><g
         id="Group-4"
         transform="translate(0,12)"><polygon
           id="Path"
           fill="#77c1d2"
           points="189.39248,50 149.52038,89.697223 109.64828,50 149.52038,10.302777 " /><polygon
           id="polygon1"
           fill="#2d3441"
           points="132.49997,92.600082 52.755773,92.600082 9.9680251,50 49.840125,10.302777 " /></g></g><g
       id="AlpineJS_Logo_Copy"
       stroke="none"
       stroke-width="1"
       fill="none"
       fill-rule="evenodd"
       transform="matrix(0.26458333,0,0,0.26458333,344.24186,163.84965)"
       style="display:inline"><path
         d="m 236.145,101 4.015,-12.98 h 25.465 L 269.64,101 h 18.535 L 264.69,27.19 H 242.305 L 217.445,101 Z M 261.61,74.985 H 244.615 L 253.25,47.98 Z M 317.05,101 V 25.1 h -17.6 V 101 Z m 36.3,26.29 -0.001,-28.571 0.055,0.0502 c 0.55246,0.5104 1.14347,0.968 1.77302,1.3728 l 0.31799,0.198 c 2.67667,1.61333 6.01333,2.42 10.01,2.42 4.58333,0 8.8825,-1.13667 12.8975,-3.41 4.015,-2.273333 7.26,-5.555 9.735,-9.845 2.475,-4.29 3.7125,-9.478333 3.7125,-15.565 0,-6.123333 -1.21917,-11.33 -3.6575,-15.62 -2.43833,-4.29 -5.60083,-7.571667 -9.4875,-9.845 -3.88667,-2.273333 -7.99333,-3.41 -12.32,-3.41 -3.26333,0 -6.34333,0.834167 -9.24,2.5025 -2.0856,1.2012 -3.88133,2.929872 -5.38718,5.186016 L 351.541,53.086 350.105,46.825 H 335.75 V 127.29 Z M 362.7,86.7 c -1.68667,0 -3.245,-0.311667 -4.675,-0.935 -1.43,-0.623333 -2.56667,-1.485 -3.41,-2.585 -0.84333,-1.1 -1.265,-2.383333 -1.265,-3.85 h -0.001 v -8.91 l 0.007,-0.378033 c 0.0477,-1.623845 0.40517,-3.061789 1.0725,-4.313834 L 354.588,65.4425 c 0.825,-1.411667 1.97083,-2.5025 3.4375,-3.2725 1.46667,-0.77 3.135,-1.155 5.005,-1.155 2.31,0 4.29917,0.531667 5.9675,1.595 1.66833,1.063333 2.96083,2.566667 3.8775,4.51 0.91667,1.943333 1.375,4.216667 1.375,6.82 0,3.08 -0.61417,5.555 -1.8425,7.425 -1.22833,1.87 -2.73167,3.226667 -4.51,4.07 -1.77833,0.843333 -3.51083,1.265 -5.1975,1.265 z m 53.625,-46.86 c 3.22667,0 5.775,-0.8525 7.645,-2.5575 1.87,-1.705 2.805,-4.115833 2.805,-7.2325 0,-3.043333 -0.935,-5.4725 -2.805,-7.2875 -1.87,-1.815 -4.41833,-2.7225 -7.645,-2.7225 -3.33667,0 -5.9125,0.9075 -7.7275,2.7225 -1.815,1.815 -2.7225,4.244167 -2.7225,7.2875 0,3.116667 0.9075,5.5275 2.7225,7.2325 1.815,1.705 4.39083,2.5575 7.7275,2.5575 z m 8.8,61.16 V 46.495 h -17.6 V 101 Z m 37.84,0 V 78.175 l 0.003,-0.559943 c 0.0417,-3.699243 0.5,-6.724243 1.375,-9.075 l 0.1345,-0.347557 c 1.00833,-2.511667 2.35583,-4.335833 4.0425,-5.4725 1.68667,-1.136667 3.53833,-1.705 5.555,-1.705 1.98,0 3.66667,0.6875 5.06,2.0625 1.39333,1.375 2.09,3.4925 2.09,6.3525 v 0 31.57 h 17.71 V 69.43 c 0,-4.73 -0.69667,-8.928333 -2.09,-12.595 -1.39333,-3.666667 -3.56583,-6.545 -6.5175,-8.635 -2.95167,-2.09 -6.75583,-3.135 -11.4125,-3.135 -4.07,0 -7.70917,1.136667 -10.9175,3.41 -1.99138,1.411034 -3.72143,3.323543 -5.19014,5.737527 L 462.656,54.466 460.875,46.825 h -15.51 V 101 Z m 74.855,1.76 c 4.47333,0 8.42417,-0.80667 11.8525,-2.42 3.42833,-1.613333 6.215,-3.795 8.36,-6.545 2.145,-2.75 3.4925,-5.811667 4.0425,-9.185 v 0 h -17.49 c -0.47667,1.43 -1.32,2.475 -2.53,3.135 -1.21,0.66 -2.62167,0.99 -4.235,0.99 -1.98,0 -3.62083,-0.4675 -4.9225,-1.4025 -1.30167,-0.935 -2.2825,-2.245833 -2.9425,-3.9325 -0.66,-1.686667 -0.99,-3.685 -0.99,-5.995 l 10e-4,0.11 h 32.559 c 0.86842,-3.890526 1.03754,-7.6741 0.50734,-11.35072 l -0.0948,-0.61178 c -0.64167,-3.868333 -1.99833,-7.3425 -4.07,-10.4225 -2.07167,-3.08 -4.79417,-5.5275 -8.1675,-7.3425 -3.37333,-1.815 -7.33333,-2.7225 -11.88,-2.7225 -4.58333,0 -8.87333,1.136667 -12.87,3.41 -3.99667,2.273333 -7.22333,5.545833 -9.68,9.8175 -2.45667,4.271667 -3.685,9.395833 -3.685,15.3725 0,5.976667 1.2375,11.146667 3.7125,15.51 2.475,4.363333 5.71083,7.718333 9.7075,10.065 3.99667,2.34667 8.26833,3.52 12.815,3.52 z m 8.359,-34.155 h -17.135 l 10e-4,-0.01516 c 0.13363,-1.504148 0.43429,-2.841259 0.902,-4.011333 l 0.1455,-0.346007 c 0.75167,-1.705 1.815,-3.006667 3.19,-3.905 1.375,-0.898333 2.9975,-1.3475 4.8675,-1.3475 1.68667,0 3.07083,0.339167 4.1525,1.0175 1.08167,0.678333 1.91583,1.576667 2.5025,2.695 0.58667,1.118333 0.98083,2.3375 1.1825,3.6575 0.10083,0.66 0.16271,1.315417 0.18563,1.96625 z m 34.596,33.385 c 3.48333,0 6.36167,-1.05417 8.635,-3.1625 2.27333,-2.108333 3.41,-4.794167 3.41,-8.0575 0,-3.263333 -1.13667,-5.976667 -3.41,-8.14 -2.27333,-2.163333 -5.15167,-3.245 -8.635,-3.245 -3.48333,0 -6.31583,1.081667 -8.4975,3.245 -2.18167,2.163333 -3.2725,4.876667 -3.2725,8.14 0,3.226667 1.09083,5.903333 3.2725,8.03 2.18167,2.12667 5.01417,3.19 8.4975,3.19 z M 614.38,39.84 c 3.22667,0 5.775,-0.8525 7.645,-2.5575 1.87,-1.705 2.805,-4.115833 2.805,-7.2325 0,-3.043333 -0.935,-5.4725 -2.805,-7.2875 -1.87,-1.815 -4.41833,-2.7225 -7.645,-2.7225 -3.22667,0 -5.79333,0.9075 -7.7,2.7225 -1.90667,1.815 -2.86,4.244167 -2.86,7.2875 0,3.116667 0.95333,5.5275 2.86,7.2325 1.90667,1.705 4.47333,2.5575 7.7,2.5575 z m -10.505,89.375 c 6.41667,0 11.275,-1.75083 14.575,-5.2525 3.3,-3.50167 4.95,-9.41417 4.95,-17.7375 v 0 -59.62 h -17.71 v 59.29 c 0,3.15333 -0.55917,5.26167 -1.6775,6.325 -1.11833,1.06333 -2.81417,1.595 -5.0875,1.595 -1.76,0 -3.66667,-0.25667 -5.72,-0.77 -2.05333,-0.51333 -3.86833,-1.08167 -5.445,-1.705 v 0 15.125 c 2.53,0.69667 5.04167,1.32917 7.535,1.8975 2.49333,0.56833 5.35333,0.8525 8.58,0.8525 z M 664.54,102.76 c 4.54667,0 8.61667,-0.84333 12.21,-2.53 3.59333,-1.686667 6.42583,-3.8775 8.4975,-6.5725 2.07167,-2.695 3.1075,-5.545833 3.1075,-8.5525 0,-3.3 -1.06333,-6.05 -3.19,-8.25 -2.12667,-2.2 -5.04167,-4.033333 -8.745,-5.5 v 0 L 661.46,65.36 c -2.31,-0.806667 -3.465,-1.906667 -3.465,-3.3 0,-1.026667 0.55,-1.851667 1.65,-2.475 1.1,-0.623333 2.60333,-0.935 4.51,-0.935 2.31,0 3.96,0.430833 4.95,1.2925 0.99,0.861667 1.485,1.879167 1.485,3.0525 v 0 h 16.115 c -0.0367,-5.206667 -1.99833,-9.496667 -5.885,-12.87 -3.88667,-3.373333 -9.44167,-5.06 -16.665,-5.06 -7.7,0 -13.76833,1.485 -18.205,4.455 -4.43667,2.97 -6.655,6.856667 -6.655,11.66 0,3.41 1.05417,6.3525 3.1625,8.8275 2.10833,2.475 5.10583,4.519167 8.9925,6.1325 v 0 l 13.145,5.115 c 1.39333,0.55 2.42,1.1 3.08,1.65 0.66,0.55 0.99,1.283333 0.99,2.2 0,0.696667 -0.23833,1.3475 -0.715,1.9525 -0.47667,0.605 -1.19167,1.090833 -2.145,1.4575 -0.95333,0.366667 -2.16333,0.55 -3.63,0.55 -2.42,0 -4.33583,-0.366667 -5.7475,-1.1 -1.41167,-0.733333 -2.15417,-2.053333 -2.2275,-3.96 v 0 h -15.895 c -0.0367,4.216667 1.05417,7.709167 3.2725,10.4775 2.21833,2.768333 5.3075,4.84 9.2675,6.215 3.96,1.375 8.525,2.0625 13.695,2.0625 z"
         id="Alpine.js-8-1"
         fill="#2d3441"
         fill-rule="nonzero" /><g
         id="Group-4-9-9"
         transform="translate(0,12)"><polygon
           id="Path-7-4"
           fill="#77c1d2"
           points="109.64828,50 149.52038,10.302777 189.39248,50 149.52038,89.697223 " /><polygon
           id="polygon1-3-7"
           fill="#2d3441"
           points="9.9680251,50 49.840125,10.302777 132.49997,92.600082 52.755773,92.600082 " /></g></g><g
       id="AlpineJS_Logo"
       stroke="none"
       stroke-width="1"
       fill="none"
       fill-rule="evenodd"
       transform="matrix(0.26458333,0,0,0.26458333,-271.78167,-265.53917)"
       style="display:inline"
       sodipodi:insensitive="true"><path
         d="m 236.145,101 4.015,-12.98 h 25.465 L 269.64,101 h 18.535 L 264.69,27.19 H 242.305 L 217.445,101 Z M 261.61,74.985 H 244.615 L 253.25,47.98 Z M 317.05,101 V 25.1 h -17.6 V 101 Z m 36.3,26.29 -0.001,-28.571 0.055,0.0502 c 0.55246,0.5104 1.14347,0.968 1.77302,1.3728 l 0.31799,0.198 c 2.67667,1.61333 6.01333,2.42 10.01,2.42 4.58333,0 8.8825,-1.13667 12.8975,-3.41 4.015,-2.273333 7.26,-5.555 9.735,-9.845 2.475,-4.29 3.7125,-9.478333 3.7125,-15.565 0,-6.123333 -1.21917,-11.33 -3.6575,-15.62 -2.43833,-4.29 -5.60083,-7.571667 -9.4875,-9.845 -3.88667,-2.273333 -7.99333,-3.41 -12.32,-3.41 -3.26333,0 -6.34333,0.834167 -9.24,2.5025 -2.0856,1.2012 -3.88133,2.929872 -5.38718,5.186016 L 351.541,53.086 350.105,46.825 H 335.75 V 127.29 Z M 362.7,86.7 c -1.68667,0 -3.245,-0.311667 -4.675,-0.935 -1.43,-0.623333 -2.56667,-1.485 -3.41,-2.585 -0.84333,-1.1 -1.265,-2.383333 -1.265,-3.85 h -0.001 v -8.91 l 0.007,-0.378033 c 0.0477,-1.623845 0.40517,-3.061789 1.0725,-4.313834 L 354.588,65.4425 c 0.825,-1.411667 1.97083,-2.5025 3.4375,-3.2725 1.46667,-0.77 3.135,-1.155 5.005,-1.155 2.31,0 4.29917,0.531667 5.9675,1.595 1.66833,1.063333 2.96083,2.566667 3.8775,4.51 0.91667,1.943333 1.375,4.216667 1.375,6.82 0,3.08 -0.61417,5.555 -1.8425,7.425 -1.22833,1.87 -2.73167,3.226667 -4.51,4.07 -1.77833,0.843333 -3.51083,1.265 -5.1975,1.265 z m 53.625,-46.86 c 3.22667,0 5.775,-0.8525 7.645,-2.5575 1.87,-1.705 2.805,-4.115833 2.805,-7.2325 0,-3.043333 -0.935,-5.4725 -2.805,-7.2875 -1.87,-1.815 -4.41833,-2.7225 -7.645,-2.7225 -3.33667,0 -5.9125,0.9075 -7.7275,2.7225 -1.815,1.815 -2.7225,4.244167 -2.7225,7.2875 0,3.116667 0.9075,5.5275 2.7225,7.2325 1.815,1.705 4.39083,2.5575 7.7275,2.5575 z m 8.8,61.16 V 46.495 h -17.6 V 101 Z m 37.84,0 V 78.175 l 0.003,-0.559943 c 0.0417,-3.699243 0.5,-6.724243 1.375,-9.075 l 0.1345,-0.347557 c 1.00833,-2.511667 2.35583,-4.335833 4.0425,-5.4725 1.68667,-1.136667 3.53833,-1.705 5.555,-1.705 1.98,0 3.66667,0.6875 5.06,2.0625 1.39333,1.375 2.09,3.4925 2.09,6.3525 v 0 31.57 h 17.71 V 69.43 c 0,-4.73 -0.69667,-8.928333 -2.09,-12.595 -1.39333,-3.666667 -3.56583,-6.545 -6.5175,-8.635 -2.95167,-2.09 -6.75583,-3.135 -11.4125,-3.135 -4.07,0 -7.70917,1.136667 -10.9175,3.41 -1.99138,1.411034 -3.72143,3.323543 -5.19014,5.737527 L 462.656,54.466 460.875,46.825 h -15.51 V 101 Z m 74.855,1.76 c 4.47333,0 8.42417,-0.80667 11.8525,-2.42 3.42833,-1.613333 6.215,-3.795 8.36,-6.545 2.145,-2.75 3.4925,-5.811667 4.0425,-9.185 v 0 h -17.49 c -0.47667,1.43 -1.32,2.475 -2.53,3.135 -1.21,0.66 -2.62167,0.99 -4.235,0.99 -1.98,0 -3.62083,-0.4675 -4.9225,-1.4025 -1.30167,-0.935 -2.2825,-2.245833 -2.9425,-3.9325 -0.66,-1.686667 -0.99,-3.685 -0.99,-5.995 l 10e-4,0.11 h 32.559 c 0.86842,-3.890526 1.03754,-7.6741 0.50734,-11.35072 l -0.0948,-0.61178 c -0.64167,-3.868333 -1.99833,-7.3425 -4.07,-10.4225 -2.07167,-3.08 -4.79417,-5.5275 -8.1675,-7.3425 -3.37333,-1.815 -7.33333,-2.7225 -11.88,-2.7225 -4.58333,0 -8.87333,1.136667 -12.87,3.41 -3.99667,2.273333 -7.22333,5.545833 -9.68,9.8175 -2.45667,4.271667 -3.685,9.395833 -3.685,15.3725 0,5.976667 1.2375,11.146667 3.7125,15.51 2.475,4.363333 5.71083,7.718333 9.7075,10.065 3.99667,2.34667 8.26833,3.52 12.815,3.52 z m 8.359,-34.155 h -17.135 l 10e-4,-0.01516 c 0.13363,-1.504148 0.43429,-2.841259 0.902,-4.011333 l 0.1455,-0.346007 c 0.75167,-1.705 1.815,-3.006667 3.19,-3.905 1.375,-0.898333 2.9975,-1.3475 4.8675,-1.3475 1.68667,0 3.07083,0.339167 4.1525,1.0175 1.08167,0.678333 1.91583,1.576667 2.5025,2.695 0.58667,1.118333 0.98083,2.3375 1.1825,3.6575 0.10083,0.66 0.16271,1.315417 0.18563,1.96625 z m 34.596,33.385 c 3.48333,0 6.36167,-1.05417 8.635,-3.1625 2.27333,-2.108333 3.41,-4.794167 3.41,-8.0575 0,-3.263333 -1.13667,-5.976667 -3.41,-8.14 -2.27333,-2.163333 -5.15167,-3.245 -8.635,-3.245 -3.48333,0 -6.31583,1.081667 -8.4975,3.245 -2.18167,2.163333 -3.2725,4.876667 -3.2725,8.14 0,3.226667 1.09083,5.903333 3.2725,8.03 2.18167,2.12667 5.01417,3.19 8.4975,3.19 z M 614.38,39.84 c 3.22667,0 5.775,-0.8525 7.645,-2.5575 1.87,-1.705 2.805,-4.115833 2.805,-7.2325 0,-3.043333 -0.935,-5.4725 -2.805,-7.2875 -1.87,-1.815 -4.41833,-2.7225 -7.645,-2.7225 -3.22667,0 -5.79333,0.9075 -7.7,2.7225 -1.90667,1.815 -2.86,4.244167 -2.86,7.2875 0,3.116667 0.95333,5.5275 2.86,7.2325 1.90667,1.705 4.47333,2.5575 7.7,2.5575 z m -10.505,89.375 c 6.41667,0 11.275,-1.75083 14.575,-5.2525 3.3,-3.50167 4.95,-9.41417 4.95,-17.7375 v 0 -59.62 h -17.71 v 59.29 c 0,3.15333 -0.55917,5.26167 -1.6775,6.325 -1.11833,1.06333 -2.81417,1.595 -5.0875,1.595 -1.76,0 -3.66667,-0.25667 -5.72,-0.77 -2.05333,-0.51333 -3.86833,-1.08167 -5.445,-1.705 v 0 15.125 c 2.53,0.69667 5.04167,1.32917 7.535,1.8975 2.49333,0.56833 5.35333,0.8525 8.58,0.8525 z M 664.54,102.76 c 4.54667,0 8.61667,-0.84333 12.21,-2.53 3.59333,-1.686667 6.42583,-3.8775 8.4975,-6.5725 2.07167,-2.695 3.1075,-5.545833 3.1075,-8.5525 0,-3.3 -1.06333,-6.05 -3.19,-8.25 -2.12667,-2.2 -5.04167,-4.033333 -8.745,-5.5 v 0 L 661.46,65.36 c -2.31,-0.806667 -3.465,-1.906667 -3.465,-3.3 0,-1.026667 0.55,-1.851667 1.65,-2.475 1.1,-0.623333 2.60333,-0.935 4.51,-0.935 2.31,0 3.96,0.430833 4.95,1.2925 0.99,0.861667 1.485,1.879167 1.485,3.0525 v 0 h 16.115 c -0.0367,-5.206667 -1.99833,-9.496667 -5.885,-12.87 -3.88667,-3.373333 -9.44167,-5.06 -16.665,-5.06 -7.7,0 -13.76833,1.485 -18.205,4.455 -4.43667,2.97 -6.655,6.856667 -6.655,11.66 0,3.41 1.05417,6.3525 3.1625,8.8275 2.10833,2.475 5.10583,4.519167 8.9925,6.1325 v 0 l 13.145,5.115 c 1.39333,0.55 2.42,1.1 3.08,1.65 0.66,0.55 0.99,1.283333 0.99,2.2 0,0.696667 -0.23833,1.3475 -0.715,1.9525 -0.47667,0.605 -1.19167,1.090833 -2.145,1.4575 -0.95333,0.366667 -2.16333,0.55 -3.63,0.55 -2.42,0 -4.33583,-0.366667 -5.7475,-1.1 -1.41167,-0.733333 -2.15417,-2.053333 -2.2275,-3.96 v 0 h -15.895 c -0.0367,4.216667 1.05417,7.709167 3.2725,10.4775 2.21833,2.768333 5.3075,4.84 9.2675,6.215 3.96,1.375 8.525,2.0625 13.695,2.0625 z"
         id="Alpine.js-8"
         fill="#2d3441"
         fill-rule="nonzero" /><g
         id="Group-4-9"
         transform="translate(0,12)"><polygon
           id="Path-7"
           fill="#77c1d2"
           points="189.39248,50 149.52038,89.697223 109.64828,50 149.52038,10.302777 " /><polygon
           id="polygon1-3"
           fill="#2d3441"
           points="132.49997,92.600082 52.755773,92.600082 9.9680251,50 49.840125,10.302777 " /></g></g></g><g
     inkscape:groupmode="layer"
     id="layer4"
     inkscape:label="Drawing"
     style="display:inline"><g
       id="AlpineJS_Logo-6"
       stroke="none"
       stroke-width="1"
       fill="none"
       fill-rule="evenodd"
       transform="matrix(0.15159397,0,0,0.16866961,185.53982,114.69847)"
       style="display:inline"><path
         d="m 236.145,101 4.015,-12.98 h 25.465 L 269.64,101 h 18.535 L 264.69,27.19 H 242.305 L 217.445,101 Z M 261.61,74.985 H 244.615 L 253.25,47.98 Z M 317.05,101 V 25.1 h -17.6 V 101 Z m 36.3,26.29 -0.001,-28.571 0.055,0.0502 c 0.55246,0.5104 1.14347,0.968 1.77302,1.3728 l 0.31799,0.198 c 2.67667,1.61333 6.01333,2.42 10.01,2.42 4.58333,0 8.8825,-1.13667 12.8975,-3.41 4.015,-2.273333 7.26,-5.555 9.735,-9.845 2.475,-4.29 3.7125,-9.478333 3.7125,-15.565 0,-6.123333 -1.21917,-11.33 -3.6575,-15.62 -2.43833,-4.29 -5.60083,-7.571667 -9.4875,-9.845 -3.88667,-2.273333 -7.99333,-3.41 -12.32,-3.41 -3.26333,0 -6.34333,0.834167 -9.24,2.5025 -2.0856,1.2012 -3.88133,2.929872 -5.38718,5.186016 L 351.541,53.086 350.105,46.825 H 335.75 V 127.29 Z M 362.7,86.7 c -1.68667,0 -3.245,-0.311667 -4.675,-0.935 -1.43,-0.623333 -2.56667,-1.485 -3.41,-2.585 -0.84333,-1.1 -1.265,-2.383333 -1.265,-3.85 h -0.001 v -8.91 l 0.007,-0.378033 c 0.0477,-1.623845 0.40517,-3.061789 1.0725,-4.313834 L 354.588,65.4425 c 0.825,-1.411667 1.97083,-2.5025 3.4375,-3.2725 1.46667,-0.77 3.135,-1.155 5.005,-1.155 2.31,0 4.29917,0.531667 5.9675,1.595 1.66833,1.063333 2.96083,2.566667 3.8775,4.51 0.91667,1.943333 1.375,4.216667 1.375,6.82 0,3.08 -0.61417,5.555 -1.8425,7.425 -1.22833,1.87 -2.73167,3.226667 -4.51,4.07 -1.77833,0.843333 -3.51083,1.265 -5.1975,1.265 z m 53.625,-46.86 c 3.22667,0 5.775,-0.8525 7.645,-2.5575 1.87,-1.705 2.805,-4.115833 2.805,-7.2325 0,-3.043333 -0.935,-5.4725 -2.805,-7.2875 -1.87,-1.815 -4.41833,-2.7225 -7.645,-2.7225 -3.33667,0 -5.9125,0.9075 -7.7275,2.7225 -1.815,1.815 -2.7225,4.244167 -2.7225,7.2875 0,3.116667 0.9075,5.5275 2.7225,7.2325 1.815,1.705 4.39083,2.5575 7.7275,2.5575 z m 8.8,61.16 V 46.495 h -17.6 V 101 Z m 37.84,0 V 78.175 l 0.003,-0.559943 c 0.0417,-3.699243 0.5,-6.724243 1.375,-9.075 l 0.1345,-0.347557 c 1.00833,-2.511667 2.35583,-4.335833 4.0425,-5.4725 1.68667,-1.136667 3.53833,-1.705 5.555,-1.705 1.98,0 3.66667,0.6875 5.06,2.0625 1.39333,1.375 2.09,3.4925 2.09,6.3525 v 0 31.57 h 17.71 V 69.43 c 0,-4.73 -0.69667,-8.928333 -2.09,-12.595 -1.39333,-3.666667 -3.56583,-6.545 -6.5175,-8.635 -2.95167,-2.09 -6.75583,-3.135 -11.4125,-3.135 -4.07,0 -7.70917,1.136667 -10.9175,3.41 -1.99138,1.411034 -3.72143,3.323543 -5.19014,5.737527 L 462.656,54.466 460.875,46.825 h -15.51 V 101 Z m 74.855,1.76 c 4.47333,0 8.42417,-0.80667 11.8525,-2.42 3.42833,-1.613333 6.215,-3.795 8.36,-6.545 2.145,-2.75 3.4925,-5.811667 4.0425,-9.185 v 0 h -17.49 c -0.47667,1.43 -1.32,2.475 -2.53,3.135 -1.21,0.66 -2.62167,0.99 -4.235,0.99 -1.98,0 -3.62083,-0.4675 -4.9225,-1.4025 -1.30167,-0.935 -2.2825,-2.245833 -2.9425,-3.9325 -0.66,-1.686667 -0.99,-3.685 -0.99,-5.995 l 10e-4,0.11 h 32.559 c 0.86842,-3.890526 1.03754,-7.6741 0.50734,-11.35072 l -0.0948,-0.61178 c -0.64167,-3.868333 -1.99833,-7.3425 -4.07,-10.4225 -2.07167,-3.08 -4.79417,-5.5275 -8.1675,-7.3425 -3.37333,-1.815 -7.33333,-2.7225 -11.88,-2.7225 -4.58333,0 -8.87333,1.136667 -12.87,3.41 -3.99667,2.273333 -7.22333,5.545833 -9.68,9.8175 -2.45667,4.271667 -3.685,9.395833 -3.685,15.3725 0,5.976667 1.2375,11.146667 3.7125,15.51 2.475,4.363333 5.71083,7.718333 9.7075,10.065 3.99667,2.34667 8.26833,3.52 12.815,3.52 z m 8.359,-34.155 h -17.135 l 10e-4,-0.01516 c 0.13363,-1.504148 0.43429,-2.841259 0.902,-4.011333 l 0.1455,-0.346007 c 0.75167,-1.705 1.815,-3.006667 3.19,-3.905 1.375,-0.898333 2.9975,-1.3475 4.8675,-1.3475 1.68667,0 3.07083,0.339167 4.1525,1.0175 1.08167,0.678333 1.91583,1.576667 2.5025,2.695 0.58667,1.118333 0.98083,2.3375 1.1825,3.6575 0.10083,0.66 0.16271,1.315417 0.18563,1.96625 z m 34.596,33.385 c 3.48333,0 6.36167,-1.05417 8.635,-3.1625 2.27333,-2.108333 3.41,-4.794167 3.41,-8.0575 0,-3.263333 -1.13667,-5.976667 -3.41,-8.14 -2.27333,-2.163333 -5.15167,-3.245 -8.635,-3.245 -3.48333,0 -6.31583,1.081667 -8.4975,3.245 -2.18167,2.163333 -3.2725,4.876667 -3.2725,8.14 0,3.226667 1.09083,5.903333 3.2725,8.03 2.18167,2.12667 5.01417,3.19 8.4975,3.19 z M 614.38,39.84 c 3.22667,0 5.775,-0.8525 7.645,-2.5575 1.87,-1.705 2.805,-4.115833 2.805,-7.2325 0,-3.043333 -0.935,-5.4725 -2.805,-7.2875 -1.87,-1.815 -4.41833,-2.7225 -7.645,-2.7225 -3.22667,0 -5.79333,0.9075 -7.7,2.7225 -1.90667,1.815 -2.86,4.244167 -2.86,7.2875 0,3.116667 0.95333,5.5275 2.86,7.2325 1.90667,1.705 4.47333,2.5575 7.7,2.5575 z m -10.505,89.375 c 6.41667,0 11.275,-1.75083 14.575,-5.2525 3.3,-3.50167 4.95,-9.41417 4.95,-17.7375 v 0 -59.62 h -17.71 v 59.29 c 0,3.15333 -0.55917,5.26167 -1.6775,6.325 -1.11833,1.06333 -2.81417,1.595 -5.0875,1.595 -1.76,0 -3.66667,-0.25667 -5.72,-0.77 -2.05333,-0.51333 -3.86833,-1.08167 -5.445,-1.705 v 0 15.125 c 2.53,0.69667 5.04167,1.32917 7.535,1.8975 2.49333,0.56833 5.35333,0.8525 8.58,0.8525 z M 664.54,102.76 c 4.54667,0 8.61667,-0.84333 12.21,-2.53 3.59333,-1.686667 6.42583,-3.8775 8.4975,-6.5725 2.07167,-2.695 3.1075,-5.545833 3.1075,-8.5525 0,-3.3 -1.06333,-6.05 -3.19,-8.25 -2.12667,-2.2 -5.04167,-4.033333 -8.745,-5.5 v 0 L 661.46,65.36 c -2.31,-0.806667 -3.465,-1.906667 -3.465,-3.3 0,-1.026667 0.55,-1.851667 1.65,-2.475 1.1,-0.623333 2.60333,-0.935 4.51,-0.935 2.31,0 3.96,0.430833 4.95,1.2925 0.99,0.861667 1.485,1.879167 1.485,3.0525 v 0 h 16.115 c -0.0367,-5.206667 -1.99833,-9.496667 -5.885,-12.87 -3.88667,-3.373333 -9.44167,-5.06 -16.665,-5.06 -7.7,0 -13.76833,1.485 -18.205,4.455 -4.43667,2.97 -6.655,6.856667 -6.655,11.66 0,3.41 1.05417,6.3525 3.1625,8.8275 2.10833,2.475 5.10583,4.519167 8.9925,6.1325 v 0 l 13.145,5.115 c 1.39333,0.55 2.42,1.1 3.08,1.65 0.66,0.55 0.99,1.283333 0.99,2.2 0,0.696667 -0.23833,1.3475 -0.715,1.9525 -0.47667,0.605 -1.19167,1.090833 -2.145,1.4575 -0.95333,0.366667 -2.16333,0.55 -3.63,0.55 -2.42,0 -4.33583,-0.366667 -5.7475,-1.1 -1.41167,-0.733333 -2.15417,-2.053333 -2.2275,-3.96 v 0 h -15.895 c -0.0367,4.216667 1.05417,7.709167 3.2725,10.4775 2.21833,2.768333 5.3075,4.84 9.2675,6.215 3.96,1.375 8.525,2.0625 13.695,2.0625 z"
         id="Alpine.js-8-5"
         fill="#2d3441"
         fill-rule="nonzero" /><g
         id="Group-4-9-6"
         transform="translate(0,12)"><polygon
           id="Path-7-9"
           fill="#77c1d2"
           points="149.52038,89.697223 109.64828,50 149.52038,10.302777 189.39248,50 " /><polygon
           id="polygon1-3-3"
           fill="#2d3441"
           points="52.755773,92.600082 9.9680251,50 49.840125,10.302777 132.49997,92.600082 " /></g></g></g></svg>
